<svg version="1.2" xmlns="http://www.w3.org/2000/svg" viewBox="0 0 709 136" width="709" height="136">
	<style>
		.s0 { fill: #000000 } 
		.s1 { fill: #006ff0 } 
		.s2 { fill: #223092 } 
	</style>
	<filter id="f0">
		<feFlood flood-color="#ffffff" flood-opacity="1" />
		<feBlend mode="normal" in2="SourceGraphic"/>
		<feComposite in2="SourceAlpha" operator="in" />
	</filter>
	<g id="Folder 2" filter="url(#f0)">
		<path class="s0" d="m234.1 43.2c-2.7-2.1-6.1-3.2-9.6-3-2.7 0-5.5 0.4-8.1 1.2-2.1 0.7-4.2 1.5-6.1 2.6v47.3c-0.8 0.3-1.7 0.6-2.6 0.7-1.2 0.2-2.3 0.3-3.5 0.3-2 0.2-3.9-0.3-5.6-1.4-0.7-0.6-1.2-1.3-1.5-2.2-0.3-0.8-0.4-1.7-0.3-2.6v-42.5c-0.1-1.7 0.3-3.3 1.1-4.8 1-1.4 2.4-2.7 3.9-3.6 6.9-3.9 14.7-5.9 22.6-5.8 7-0.4 13.9 1.6 19.6 5.6 2.4 2.1 4.3 4.7 5.5 7.6 1.2 2.9 1.7 6.1 1.5 9.3v39.3c-0.8 0.3-1.7 0.6-2.6 0.7q-1.8 0.3-3.6 0.3c-2 0.2-3.9-0.3-5.6-1.4-0.7-0.6-1.2-1.3-1.5-2.2-0.3-0.8-0.4-1.7-0.3-2.6v-33.7c0.1-1.7-0.1-3.4-0.7-5-0.6-1.6-1.6-3-2.8-4.2h0.2z"/>
		<path class="s0" d="m661.8 43.5c-2.8-2.3-6.4-3.4-10-3.2-2.6 0-5.1 0.4-7.5 1.3-2.1 0.8-4.1 1.9-6 3.2v46.4c-0.8 0.3-1.7 0.6-2.6 0.7-1.2 0.2-2.4 0.3-3.5 0.3-2 0.2-3.9-0.3-5.6-1.4-0.6-0.6-1.1-1.3-1.5-2.2-0.3-0.8-0.4-1.7-0.3-2.6v-78.2l2.6-0.6c1.2-0.3 2.5-0.4 3.8-0.4 1.9-0.2 3.9 0.3 5.5 1.4 0.6 0.6 1.1 1.3 1.4 2.2 0.3 0.8 0.4 1.7 0.3 2.6v20.4q3.3-1.65 6.9-2.7c2.9-0.9 5.9-1.3 8.8-1.2 6.6-0.3 13 1.8 18.2 5.9 4.5 4 6.8 10 6.8 18.2v37.8c-0.8 0.3-1.7 0.6-2.6 0.7-1.1 0.2-2.3 0.3-3.5 0.3-2 0.2-4-0.3-5.6-1.4-0.6-0.6-1.1-1.4-1.4-2.2-0.3-0.8-0.4-1.7-0.3-2.6v-32.2c0.2-1.9-0.1-3.8-0.8-5.6-0.7-1.9-1.7-3.6-3.1-4.9z"/>
		<path class="s0" d="m322.2 61.3c0.1 4.5-0.7 9-2.2 13.3-1.3 3.7-3.4 7.2-6.1 10.1-2.7 2.8-6 5-9.6 6.4-8.2 3-17.1 3-25.3 0-3.6-1.4-6.9-3.6-9.6-6.4-2.7-2.9-4.8-6.3-6.1-10.1-1.5-4.3-2.2-8.8-2.2-13.3-0.1-4.5 0.7-9 2.2-13.3 1.3-3.7 3.4-7.2 6.1-10.1 2.7-2.8 6-5 9.6-6.4 8.1-3 16.9-3 25 0 3.6 1.4 6.9 3.6 9.6 6.4 2.7 2.9 4.8 6.3 6.2 10.1 1.5 4.2 2.3 8.7 2.2 13.2zm-30.5-21.1c-2.3-0.1-4.7 0.3-6.8 1.3-2.1 1-4 2.4-5.5 4.2-3.3 4.5-4.9 10-4.5 15.6-0.4 5.5 1.2 11 4.4 15.6 1.6 1.7 3.5 3.1 5.6 4.1 2.1 0.9 4.4 1.4 6.8 1.4 2.3 0 4.6-0.5 6.8-1.4 2.1-0.9 4-2.3 5.6-4.1 3.3-4.5 4.9-10 4.5-15.6 0.3-5.5-1.2-11-4.4-15.6-1.5-1.8-3.3-3.3-5.5-4.3-2.1-1-4.5-1.4-6.8-1.3"/>
		<path class="s0" d="m378.6 29.9c1.7-0.1 3.3 0.4 4.6 1.3 0.6 0.5 1.1 1.2 1.4 1.9 0.4 0.7 0.6 1.5 0.5 2.4-0.1 1.8-0.5 3.5-1 5.2-0.6 2.5-1.5 5.3-2.6 8.6-1.1 3.3-2.4 6.8-3.7 10.5-1.4 3.8-2.9 7.6-4.4 11.3-1.5 3.7-3.2 7.3-4.6 10.7-1.4 3.4-2.9 6.4-4.2 8.7-1 0.6-2.1 1-3.2 1.2-1.5 0.4-3.1 0.6-4.7 0.6-4.2 0-7-1.2-8.2-3.5q-2.7-4.95-4.8-10.2c-2-4.6-4-9.6-6.1-15-2.1-5.4-4.1-10.9-6-16.4-1.9-5.5-3.4-10.2-4.6-14.1 0.9-1 2-1.8 3.2-2.4 1.2-0.6 2.5-0.8 3.9-0.8 1.7-0.1 3.4 0.4 4.7 1.3 1.4 1.3 2.3 2.9 2.8 4.7l7.1 22.2q0.75 2.4 1.8 5.4 1.05 3 2.1 6c0.7 2 1.4 4 2.1 5.8 0.7 1.8 1.2 3.4 1.7 4.7h0.7c2.9-8.1 5.7-16.2 8.4-24.4 2.7-8.2 5-16.3 6.9-24.4 1.9-1 3.9-1.4 6-1.4"/>
		<path class="s0" d="m416.4 29.4c6.8-0.4 13.5 1.5 19.2 5.2 4.8 3.4 7.2 8.9 7.2 16.4v30c0.1 1.6-0.4 3.3-1.3 4.6-1.1 1.2-2.3 2.2-3.7 3-2.7 1.4-5.6 2.5-8.7 3.2-4 1-8.1 1.5-12.3 1.4-6.9 0.4-13.7-1.3-19.5-4.9-2.3-1.6-4.2-3.8-5.4-6.4-1.2-2.5-1.8-5.3-1.6-8.1-0.1-2.4 0.3-4.8 1.2-7 0.9-2.2 2.3-4.2 4.1-5.8 4.6-3.3 10.1-5.3 15.8-5.6l17.9-1.8v-2.9c0.1-1.6-0.1-3.2-0.8-4.6-0.6-1.4-1.6-2.7-2.9-3.6-3.1-1.9-6.7-2.8-10.4-2.6-3.4 0-6.7 0.4-9.9 1.4-2.9 0.8-5.8 1.9-8.5 3.2-0.9-0.7-1.7-1.6-2.2-2.6-0.6-1-0.9-2.1-0.9-3.2 0-1.3 0.4-2.6 1.1-3.7 0.9-1.1 2.1-1.9 3.4-2.4 2.6-1.3 5.4-2.1 8.3-2.6q4.8-0.6 9.9-0.6zm0 53.5q3.9 0 7.8-0.9c1.7-0.4 3.3-1 4.8-1.9v-16.3l-14.1 1.4c-3.1 0.2-6.2 1.1-8.9 2.6-1 0.7-1.7 1.6-2.3 2.7-0.5 1.1-0.8 2.3-0.7 3.4-0.1 1.3 0.2 2.6 0.8 3.7 0.6 1.2 1.4 2.2 2.4 2.9 3 1.7 6.6 2.6 10.2 2.4z"/>
		<path class="s0" d="m468.4 80.4c2.3 1.4 4.9 2.1 7.6 1.9 1.6 0 3.1-0.2 4.6-0.6 1.5-0.4 2.9-0.9 4.3-1.5 0.6 0.7 1.2 1.5 1.6 2.3 0.8 1.5 1 3.2 0.5 4.8-0.5 1.6-1.6 3-3.1 3.8-3.2 1.7-6.8 2.4-10.4 2.2-5.5 0.3-10.9-1.2-15.4-4.3-3.8-2.9-5.7-7.6-5.7-14.2v-60.1l2.6-0.7c1.2-0.3 2.4-0.4 3.7-0.4 1.9-0.2 3.9 0.3 5.5 1.4 0.6 0.6 1.1 1.4 1.3 2.2 0.3 0.8 0.4 1.7 0.3 2.6v12.6h20c0.4 0.7 0.7 1.4 1 2.2 0.3 1 0.5 2 0.5 3 0 3.7-1.6 5.5-4.8 5.5h-16.7v30.8c-0.1 1.2 0 2.5 0.5 3.6 0.5 1.1 1.2 2.2 2.1 3"/>
		<path class="s0" d="m510.4 68.2c0.8 4.4 3.3 8.3 7 10.9 4 2.5 8.7 3.8 13.4 3.6 3.4 0 6.7-0.5 9.9-1.7 2.6-0.9 5.1-2.1 7.4-3.6 1.1 0.5 2 1.4 2.6 2.4 0.6 1 1 2.2 1 3.4 0 1.5-0.6 2.9-1.7 4-1.3 1.4-2.8 2.5-4.6 3.2q-3.3 1.5-6.9 2.1c-2.8 0.5-5.6 0.8-8.4 0.8-4.6 0.1-9.2-0.6-13.6-2.1-3.9-1.2-7.5-3.4-10.5-6.2-3-2.8-5.3-6.3-6.8-10.2-1.7-4.5-2.5-9.3-2.4-14.1-0.1-4.6 0.7-9.2 2.3-13.6 1.4-3.7 3.6-7 6.4-9.8 2.7-2.7 6-4.7 9.6-6 3.7-1.4 7.6-2.1 11.5-2 3.8 0 7.7 0.6 11.3 2 3.3 1.2 6.2 3.1 8.8 5.5 2.5 2.4 4.4 5.3 5.7 8.5 1.4 3.4 2.1 7 2 10.7 0.1 0.9 0 1.7-0.3 2.5-0.3 0.8-0.7 1.5-1.2 2.2-1.3 1.1-2.9 1.8-4.5 2zm16-28.4c-2.2-0.1-4.4 0.3-6.4 1.1-2 0.8-3.9 2.1-5.4 3.6-3.4 3.7-5.1 8.6-5 13.7l31.7-4.5c-0.3-3.7-1.8-7.2-4.2-9.9-1.4-1.4-3.1-2.5-4.9-3.2-1.8-0.6-3.8-0.9-5.8-0.8z"/>
		<path class="s0" d="m596.8 40.3c-2.6 0-5.2 0.4-7.6 1.3-2.2 0.9-4.3 2.3-5.9 4.1-1.8 1.9-3.1 4.2-4 6.6-1.1 2.9-1.6 6-1.5 9.1-0.2 2.8 0.2 5.6 1 8.3 0.9 2.7 2.3 5.2 4.1 7.3 1.8 1.8 4 3.2 6.4 4.1 2.4 0.9 4.9 1.3 7.4 1.2 2.9 0.1 5.7-0.3 8.4-1.3 2.1-0.8 4.2-1.9 6-3.2 1.1 0.6 2 1.5 2.7 2.5 0.7 1 1.1 2.2 1 3.5-0.1 1.5-0.7 2.9-1.6 4.1-0.9 1.2-2.1 2.1-3.6 2.6-4.3 2-9 2.9-13.7 2.7-4.4 0-8.8-0.6-13-1.9-3.8-1.2-7.2-3.2-10.1-5.9-2.9-2.8-5.2-6.2-6.6-10-1.7-4.5-2.5-9.2-2.4-14 0-4.8 0.8-9.6 2.6-14.1 1.5-3.8 3.8-7.2 6.7-9.9 2.9-2.8 6.5-4.9 10.3-6.1 6.4-2.1 13.2-2.5 19.8-1.2 2 0.4 4 1.2 5.9 2.1 1.5 0.8 2.8 1.9 3.8 3.2 0.8 1 1.3 2.2 1.3 3.4 0.1 1.2-0.3 2.5-1 3.5-0.6 1-1.4 1.7-2.4 2.3q-2.85-1.8-6-3c-2.5-0.8-5.2-1.3-8-1.3z"/>
	</g>
	<filter id="f1">
		<feFlood flood-color="#ffffff" flood-opacity="1" />
		<feBlend mode="normal" in2="SourceGraphic"/>
		<feComposite in2="SourceAlpha" operator="in" />
	</filter>
	<g id="Folder 1" filter="url(#f1)">
		<path class="s1" d="m155.31 25.99c-7.14-7.56-16.57-12.27-26.54-13.55-10.11-1.14-20.21 1.43-28.7 7.13 1.89 1.57 3.77 3.14 5.52 4.85l8.63 9.12c0.94-0.57 2.02-0.99 3.1-1.56 3.1-1 6.19-1.57 9.43-1.43 3.37-0.14 6.6 0.57 9.7 2 3.1 1.42 5.79 3.42 8.08 6.13 5.12 5.42 8.09 12.83 8.09 20.53 0 3.85-0.68 7.56-2.16 11.12-1.35 3.57-3.37 6.7-5.93 9.41-2.29 2.71-4.98 4.99-8.08 6.56-3.1 1.57-6.47 2.43-9.97 2.57-3.64 0-7.14-0.86-10.38-2.28-3.36-1.43-6.33-3.57-8.75-6.28l-28.3-29.51c-1.21-1.29-2.83-2.28-4.58-2.57-1.75-0.43-3.5-0.14-5.25 0.57-1.62 0.71-3.1 2-4.05 3.57-0.94 1.57-1.61 3.42-1.61 5.27q0 1.5 0.4 3c0.67 1.57 1.62 2.99 2.7 4.27l15.89 16.83 10.24 10.84c1.62 1.85 3.51 3.56 5.39 4.99 9.03 7.41 20.35 10.83 31.67 9.55 11.32-1.28 21.69-7.13 29.1-16.25 7.41-9.13 11.05-21.11 10.38-33.08-0.68-11.98-5.66-23.53-14.02-31.8z"/>
		<path class="s2" d="m83.36 82.31l1.89 2.14-2.83 1c-4.58 1.85-9.57 2.28-14.42 1.28-4.85-1-9.29-3.28-12.93-6.7-2.7-2.57-4.99-5.7-6.6-9.13-1.62-3.56-2.56-7.27-2.7-11.12-0.13-3.85 0.4-7.7 1.62-11.41 1.21-3.7 3.23-6.98 5.66-9.83 3.37-3.85 7.54-6.56 12.26-8.13 4.71-1.43 9.7-1.57 14.41-0.29 4.72 1.29 9.17 3.85 12.54 7.56l28.16 29.52c1.61 1.71 3.63 2.71 5.92 2.85 2.29 0.14 4.45-0.57 6.2-2.14h0.27l0.41-0.43 0.4-0.43v-0.42l0.4-0.29 0.27-0.57v-0.29c0.81-1.28 1.22-2.7 1.49-4.27 0.27-1.57 0-3-0.54-4.42-0.41-1.14-1.08-2.14-1.75-3.14l-0.27-0.29-0.68-0.85-0.54-0.71-16.03-16.26-0.81-0.85-9.7-10.13c-1.75-1.71-3.5-3.42-5.52-4.85-6.61-4.99-14.29-7.84-22.24-8.55-7.95-0.71-16.03 1-23.17 4.85-7.14 3.85-13.21 9.55-17.65 16.68-4.31 7.13-6.74 15.4-6.87 23.95-0.14 8.56 1.75 16.83 5.79 24.24 2.96 5.57 7.01 10.41 11.72 14.12q7.28 5.78 16.17 8.13c5.79 1.57 11.86 1.71 17.79 0.71 5.92-1 11.58-3.28 16.7-6.7-2.02-1.43-3.77-3.14-5.52-4.85z"/>
	</g>
</svg>